<?xml version="1.0" encoding="utf-8"?>
<!-- Generator: Adobe Illustrator 22.1.0, SVG Export Plug-In . SVG Version: 6.00 Build 0)  -->
<svg version="1.1" id="Layer_1" xmlns="http://www.w3.org/2000/svg" xmlns:xlink="http://www.w3.org/1999/xlink" x="0px" y="0px"
	 viewBox="0 0 256 256" style="enable-background:new 0 0 256 256;" xml:space="preserve">
<style type="text/css">
	.st0{fill:#D73735;}
	.st1{fill:#F85252;}
	.st2{fill:#EDAF85;}
	.st3{fill:#F7C09A;}
	.st4{fill:#D8D6D7;}
	.st5{fill:#FFFFFF;}
	.st6{fill:#1C868E;}
	.st7{fill:#40C4DF;}
	.st8{fill:#491352;}
	.st9{fill:#56C1B3;}
	.st10{fill:#7BEFE4;}
</style>
<g>
	<path class="st6" d="M185.093,57.746v189.74c0,2.76-2.23,5-5,5H21.912c-2.77,0-5-2.24-5-5v-239c0-2.76,2.23-5,5-5h109.69
		c1.34,0,2.63,0.53,3.57,1.49l48.49,49.26C184.583,55.176,185.093,56.437,185.093,57.746z"/>
	<path class="st7" d="M185.093,57.746v189.74c0,2.76-2.23,5-5,5H37.122c-2.76,0-5-2.24-5-5v-239c0-2.76,2.24-5,5-5h94.48
		c1.34,0,2.63,0.53,3.57,1.49l48.49,49.26C184.583,55.176,185.093,56.437,185.093,57.746z"/>
	<rect x="16.908" y="89.712" class="st5" width="168.188" height="122.886"/>
	<rect x="16.912" y="89.716" class="st4" width="15.21" height="122.88"/>
	<g>
		<g id="XMLID_80_">
			<path class="st1" d="M234.902,139.41h-9.48c-0.83-2.79-1.95-5.51-3.37-8.11l6.71-6.71c1.64-1.63,1.64-4.29,0-5.93l-10.97-10.96
				c-1.64-1.64-4.29-1.64-5.93,0l-6.71,6.7c-2.6-1.42-5.32-2.54-8.11-3.36v-9.48c0-2.32-1.88-4.19-4.2-4.19h-15.51
				c-2.31,0-4.19,1.87-4.19,4.19v9.48c-2.79,0.82-5.51,1.95-8.11,3.36l-6.71-6.7c-1.63-1.64-4.29-1.64-5.92,0l-10.97,10.96
				c-1.64,1.64-1.64,4.3,0,5.93l6.7,6.71c-1.54,2.83-2.72,5.79-3.56,8.83h-9.28c-2.32,0-4.19,1.88-4.19,4.19v15.52
				c0,2.31,1.87,4.19,4.19,4.19h9.71c0.78,2.54,1.83,5.02,3.13,7.38l-6.7,6.72c-1.64,1.64-1.64,4.29,0,5.93l10.97,10.97
				c1.63,1.63,4.29,1.63,5.92,0l6.71-6.71c2.6,1.42,5.32,2.53,8.11,3.37v9.48c0,2.32,1.88,4.19,4.19,4.19h15.51
				c2.32,0,4.2-1.87,4.2-4.19v-9.48c2.79-0.84,5.52-1.95,8.12-3.37l6.7,6.71c1.64,1.63,4.29,1.63,5.93,0l10.97-10.97
				c1.64-1.64,1.64-4.29,0-5.93l-6.71-6.7c1.42-2.6,2.54-5.33,3.37-8.12h9.48c2.32,0,4.2-1.88,4.2-4.2V143.6
				C239.102,141.29,237.222,139.41,234.902,139.41z M185.102,176.85c-14.14,0-25.5-11.47-25.5-25.48c0-14.15,11.49-25.5,25.5-25.5
				c14.07,0,25.49,11.42,25.49,25.5C210.592,165.49,199.132,176.85,185.102,176.85z"/>
		</g>
	</g>
	<g>
		<path class="st8" d="M185.122,123.873c-0.01,0-0.02-0.003-0.03-0.003c-0.012,0-0.023,0.003-0.035,0.003
			c-15.14,0.023-27.451,12.347-27.451,27.493c0,15.157,12.333,27.488,27.494,27.488c15.157,0,27.488-12.331,27.488-27.488
			C212.588,136.213,200.269,123.885,185.122,123.873z M183.092,174.762c-12.017-1.022-21.486-11.122-21.486-23.396
			c0-12.278,9.468-22.379,21.486-23.402V174.762z M187.092,174.763v-46.8c12.021,1.016,21.496,11.12,21.496,23.403
			C208.588,163.646,199.114,173.748,187.092,174.763z"/>
		<path class="st8" d="M234.904,137.409h-8.018c-0.66-1.979-1.456-3.898-2.377-5.733l5.668-5.669
			c1.17-1.165,1.815-2.717,1.817-4.372c0.001-1.658-0.643-3.216-1.814-4.389l-10.977-10.963c-2.409-2.409-6.337-2.41-8.757,0
			l-5.666,5.666c-1.844-0.924-3.766-1.719-5.739-2.375v-8.015c0-3.416-2.778-6.194-6.194-6.194h-5.754c0-14.398,0-23.365,0-37.595
			c0-1.861-0.713-3.607-2.004-4.913L136.594,3.583c-1.31-1.324-3.129-2.083-4.992-2.083h-109.7c-3.86,0-7,3.14-7,7
			c0,10.915,0,228.901,0,239c0,3.86,3.14,7,7,7h158.19c3.86,0,7-3.14,7-7c0-20.853,0-19.243,0-40.135h5.754
			c3.416,0,6.194-2.778,6.194-6.194v-8.02c1.983-0.665,3.905-1.46,5.742-2.377l5.668,5.679c2.416,2.397,6.341,2.396,8.751-0.006
			l10.978-10.977c2.41-2.409,2.411-6.336-0.001-8.759l-5.67-5.659c0.92-1.839,1.716-3.761,2.378-5.744h8.017
			c3.416,0,6.194-2.778,6.194-6.194v-15.511C241.098,140.188,238.319,137.409,234.904,137.409z M18.902,8.5c0-1.654,1.346-3,3-3
			h109.7c0.801,0,1.584,0.327,2.145,0.893l48.494,49.273c0.549,0.556,0.852,1.303,0.852,2.104v29.96H18.902V8.5z M183.092,247.5
			c0,1.654-1.346,3-3,3H21.902c-1.654,0-3-1.346-3-3v-32.89h164.19V247.5z M183.092,210.61H18.902V91.73h164.19v3.635h-5.756
			c-3.416,0-6.194,2.778-6.194,6.194v8.016c-1.956,0.651-3.875,1.446-5.731,2.375l-5.67-5.665c-1.167-1.171-2.722-1.816-4.379-1.816
			c-1.656,0-3.211,0.646-4.374,1.813l-10.972,10.965c-1.171,1.171-1.815,2.729-1.814,4.388c0.002,1.655,0.647,3.208,1.813,4.369
			l5.668,5.674c-1.033,2.066-1.905,4.228-2.604,6.456h-7.787c-3.416,0-6.194,2.775-6.194,6.187v15.517
			c0,3.416,2.778,6.194,6.194,6.194h8.265c0.594,1.706,1.305,3.382,2.124,5.01l-5.667,5.673c-2.408,2.418-2.407,6.345,0.002,8.754
			l10.971,10.977c1.167,1.167,2.72,1.809,4.375,1.809s3.209-0.643,4.375-1.809l5.674-5.674c1.84,0.919,3.759,1.715,5.731,2.377
			v8.021c0,3.416,2.779,6.194,6.194,6.194h5.756V210.61z M237.098,159.114c0,1.209-0.984,2.194-2.194,2.194h-9.484
			c-0.885,0-1.666,0.582-1.917,1.431c-0.805,2.712-1.882,5.313-3.203,7.73c-0.426,0.78-0.286,1.747,0.343,2.375l6.707,6.694
			c0.854,0.858,0.856,2.251,0.003,3.104l-10.975,10.974c-0.854,0.852-2.249,0.851-3.102,0.004l-6.699-6.711
			c-0.626-0.628-1.593-0.767-2.371-0.344c-2.418,1.315-5.022,2.394-7.738,3.207c-0.847,0.253-1.427,1.032-1.427,1.916v9.484
			c0,1.209-0.984,2.194-2.194,2.194c-1.392,0-3.764,0-15.51,0c-1.21,0-2.194-0.984-2.194-2.194v-9.484
			c0-0.884-0.58-1.663-1.427-1.916c-2.697-0.807-5.296-1.886-7.725-3.207c-0.301-0.164-0.629-0.243-0.955-0.243
			c-0.518,0-1.03,0.201-1.415,0.586l-6.711,6.711c-0.822,0.821-2.272,0.823-3.094,0l-10.972-10.977
			c-0.853-0.853-0.852-2.246,0.001-3.102l6.705-6.711c0.628-0.628,0.766-1.596,0.339-2.375c-1.23-2.245-2.23-4.604-2.973-7.011
			c-0.258-0.838-1.034-1.411-1.911-1.411h-9.712c-1.209,0-2.194-0.984-2.194-2.194V144.32c0-1.206,0.984-2.187,2.194-2.187h9.282
			c0.899,0,1.688-0.601,1.928-1.467c0.813-2.943,1.954-5.772,3.39-8.407c0.424-0.778,0.285-1.743-0.341-2.371l-6.709-6.715
			c-0.412-0.41-0.638-0.958-0.639-1.542c0-0.588,0.228-1.14,0.642-1.555l10.975-10.968c0.821-0.824,2.264-0.828,3.092,0.004
			l6.711,6.705c0.628,0.627,1.591,0.765,2.369,0.342c2.463-1.339,5.06-2.415,7.717-3.197c0.851-0.25,1.435-1.031,1.435-1.918v-9.484
			c0-1.209,0.984-2.194,2.194-2.194c3.691,0,7.233,0,15.51,0c1.209,0,2.194,0.984,2.194,2.194v9.484
			c0,0.887,0.584,1.668,1.435,1.918c2.692,0.792,5.29,1.868,7.72,3.196c0.781,0.425,1.746,0.287,2.373-0.341l6.703-6.702
			c0.857-0.854,2.25-0.856,3.104-0.002l10.977,10.963c0.415,0.415,0.643,0.967,0.642,1.555c-0.001,0.585-0.228,1.132-0.642,1.545
			l-6.711,6.712c-0.628,0.628-0.767,1.596-0.34,2.375c1.321,2.413,2.399,5.008,3.202,7.715c0.252,0.849,1.032,1.431,1.917,1.431
			h9.484c1.209,0,2.194,0.984,2.194,2.194V159.114z"/>
		<path class="st8" d="M29.501,109.421h103c1.104,0,2-0.896,2-2s-0.896-2-2-2h-103c-1.104,0-2,0.896-2,2
			S28.397,109.421,29.501,109.421z"/>
		<path class="st8" d="M29.501,131.296h93c1.104,0,2-0.896,2-2s-0.896-2-2-2h-93c-1.104,0-2,0.896-2,2
			S28.397,131.296,29.501,131.296z"/>
		<path class="st8" d="M29.501,153.171h80c1.104,0,2-0.896,2-2s-0.896-2-2-2h-80c-1.104,0-2,0.896-2,2
			S28.397,153.171,29.501,153.171z"/>
		<path class="st8" d="M29.501,175.046h93c1.104,0,2-0.896,2-2s-0.896-2-2-2h-93c-1.104,0-2,0.896-2,2
			S28.397,175.046,29.501,175.046z"/>
		<path class="st8" d="M132.501,192.921h-103c-1.104,0-2,0.896-2,2s0.896,2,2,2h103c1.104,0,2-0.896,2-2
			S133.606,192.921,132.501,192.921z"/>
	</g>
</g>
</svg>
